<svg id="Layer_2" data-name="Layer 2" xmlns="http://www.w3.org/2000/svg" viewBox="0 0 893.59 825.98"><defs><style>.cls-1,.cls-2,.cls-3{fill:none;stroke-width:36px;}.cls-1,.cls-3{stroke:#a0a0a0;stroke-linecap:round;}.cls-1,.cls-2{stroke-miterlimit:10;}.cls-2{stroke:#969696;}.cls-3{stroke-linejoin:round;}.cls-4{font-size:30px;}.cls-4,.cls-5{fill:#a0a0a0;font-family:ArialMT, Arial;}.cls-5{font-size:370px;}</style></defs><path class="cls-1" d="M809.83,431.11q.64,11.33.65,22.66c0,216.69-178.3,395-395,395s-395-178.31-395-395,178.3-395,395-395c3.81,0,7.63.06,11.44.17" transform="translate(-2.5 -40.78)"/><path class="cls-2" d="M809.83,431.11" transform="translate(-2.5 -40.78)"/><path class="cls-2" d="M415.49,453.77" transform="translate(-2.5 -40.78)"/><path class="cls-2" d="M426.93,59" transform="translate(-2.5 -40.78)"/><polyline class="cls-3" points="726.76 481.04 807.33 371.03 875.59 481.04"/><text class="cls-4" transform="translate(103.17 262.73) rotate(-63.93)">more</text><text class="cls-5" transform="translate(275.41 542.93)">M</text><text class="cls-4" transform="translate(381.77 64.06) rotate(-0.14)">more</text><text class="cls-4" transform="matrix(0.54, 0.84, -0.84, 0.54, 84.52, 563.22)">more</text><text class="cls-4" transform="translate(381.76 766.26) rotate(-0.14)">more</text><text class="cls-4" transform="translate(709.33 619.77) rotate(-63.93)">more</text></svg>