<svg id="Layer_3" data-name="Layer 3" xmlns="http://www.w3.org/2000/svg" viewBox="0 0 819.19 819.69"><defs><style>.cls-1,.cls-2,.cls-3{fill:none;stroke-miterlimit:10;}.cls-1{stroke:#a0a0a0;}.cls-1,.cls-2{stroke-linecap:round;}.cls-1,.cls-3{stroke-width:36px;}.cls-2{stroke:#fff;stroke-width:37px;}.cls-3{stroke:#d0d0d0;stroke-linecap:square;}</style></defs><circle class="cls-1" cx="409.6" cy="410.1" r="391.6"/><path class="cls-2" d="M409.58,409.82,308.22,31.56a391.71,391.71,0,0,1,202.71,0Z" transform="translate(0.02 0.28)"/><path class="cls-3" d="M328.16,26.78a391.5,391.5,0,0,1,162.84,0" transform="translate(0.02 0.28)"/><path class="cls-2" d="M409.58,409.82l-276.9,276.9A391.46,391.46,0,0,1,31.32,511.17Z" transform="translate(0.02 0.28)"/><path class="cls-3" d="M118.56,671.85a391.39,391.39,0,0,1-81.41-141" transform="translate(0.02 0.28)"/><path class="cls-2" d="M409.58,409.82,787.83,511.17A391.57,391.57,0,0,1,686.48,686.72Z" transform="translate(0.02 0.28)"/><path class="cls-3" d="M782,530.83a391.61,391.61,0,0,1-81.42,141" transform="translate(0.02 0.28)"/></svg>