<svg id="레이어_1" data-name="레이어 1" xmlns="http://www.w3.org/2000/svg" viewBox="0 0 116.27 92.06"><defs><style>.cls-1{fill:#040000;}</style></defs><path class="cls-1" d="M85.77,235A4.82,4.82,0,1,1,81,230.14,4.82,4.82,0,0,1,85.77,235Z" transform="translate(-23.67 -181.84)"/><polygon class="cls-1" points="84.6 59.52 99.21 82.66 70.58 82.66 64.64 92.06 116.27 92.06 90.16 50.72 84.6 59.52"/><polygon class="cls-1" points="116.27 0 64.64 0 70.58 9.4 99.21 9.4 81.64 37.23 81.64 37.23 76.08 46.03 76.08 46.03 52.95 82.66 39.08 82.66 33.14 92.06 58.14 92.06 64.08 82.66 64.07 82.66 81.64 54.83 81.64 54.83 87.2 46.03 87.2 46.03 116.27 0"/><polygon class="cls-1" points="32.57 82.66 17.05 82.66 58.13 17.61 73.13 41.35 78.68 32.54 64.07 9.4 64.07 9.4 58.13 0 58.13 0 0 92.06 26.63 92.06 32.57 82.66"/></svg>