<svg xmlns="http://www.w3.org/2000/svg" viewBox="0 0 111.99 79.12"><defs><style>.cls-1,.cls-5{fill:#fff;}.cls-1,.cls-2,.cls-3{stroke:#221714;}.cls-1,.cls-2,.cls-3,.cls-5{stroke-miterlimit:10;}.cls-2{fill:#221714;}.cls-3{fill:none;}.cls-4{fill:#040000;}.cls-5{stroke:#231815;}</style></defs><g id="레이어_2" data-name="레이어 2"><g id="레이어_1-2" data-name="레이어 1"><path class="cls-1" d="M50.39,72.34c-.13.17-7.69,1.67-11.16.5V67.18l9.18-2.84Z"/><path class="cls-1" d="M16.23,72.34c.13.17,7.69,1.67,11.16.5V67.18l-9.18-2.84Z"/><path class="cls-1" d="M11.87,57.07c-6.21,5.88-8.5,5-8.5,5S-5.09,42.4,7.05,33.34"/><path class="cls-1" d="M55.79,58.34c6.75,6.38,10.1,6,10.1,6s7-21.13-6.23-31"/><path class="cls-1" d="M59,31.16s8.38,37.68-25.12,37.68S7.58,28.35,7.58,28.35l3.9-11.82S.76,0,6.26.51,18.61,7.77,18.61,7.77A44.44,44.44,0,0,1,49.36,8S62.26-3,64.09,1.68s-7.17,14.85-7.17,14.85Z"/><circle class="cls-1" cx="19.26" cy="25.65" r="11.98"/><circle class="cls-1" cx="48.41" cy="25.65" r="11.98"/><circle class="cls-2" cx="46.76" cy="25.65" r="3.64"/><circle class="cls-2" cx="21.29" cy="25.65" r="3.64"/><line class="cls-1" x1="31.24" y1="25.65" x2="36.42" y2="25.65"/><path class="cls-1" d="M28.24,33.58s4.84,4.37,6,7.43c0,0,3.64-6.25,5.67-6.92"/><polyline class="cls-3" points="48.41 37.63 32.74 50.36 32.74 68.81"/><line class="cls-3" x1="35.09" y1="47.74" x2="20.25" y2="37.59"/><circle class="cls-3" cx="35.85" cy="55.58" r="1.33"/><circle class="cls-3" cx="35.85" cy="63.21" r="1.33"/><path class="cls-4" d="M48.78,46.69a.46.46,0,0,1-.45.46.47.47,0,0,1-.46-.46.46.46,0,0,1,.46-.45A.45.45,0,0,1,48.78,46.69Z"/><polygon class="cls-4" points="50.9 47.3 52.28 49.48 49.58 49.48 49.02 50.36 53.89 50.36 51.42 46.47 50.9 47.3"/><polygon class="cls-4" points="53.89 41.69 49.02 41.69 49.58 42.57 52.28 42.57 50.62 45.2 50.62 45.2 50.1 46.02 50.1 46.02 47.92 49.48 46.61 49.48 46.05 50.36 48.41 50.36 48.97 49.48 48.97 49.48 50.62 46.85 50.62 46.85 51.15 46.02 51.15 46.02 53.89 41.69"/><polygon class="cls-4" points="46 49.48 44.53 49.48 48.41 43.34 49.82 45.58 50.34 44.75 48.97 42.57 48.97 42.57 48.41 41.69 48.41 41.69 42.93 50.36 45.44 50.36 46 49.48"/><path class="cls-5" d="M48.65,75.1,91.74,16.35s-3.62,9.77,17.34-9.85l-55.33,72S50.64,79.77,48.65,75.1Z"/><path class="cls-5" d="M64,65.19s-3.56,1-5.54-3.64"/><path class="cls-5" d="M76.8,48.48s-3.69,1-5.67-3.72"/><path class="cls-5" d="M89.16,32.17a5.88,5.88,0,0,1-6.73-3.54"/><path class="cls-5" d="M91.74,16.35S98.44,5.84,108.1,2.18s-4.11,10.32-7.54,13S88.92,24.11,91.74,16.35Z"/><path class="cls-5" d="M94.23,15s-5.09,8.21,6.87-2.34,8.59-10.08,6.06-8.65S100.82,7.05,94.23,15Z"/></g></g></svg>